<svg width="22" height="22" viewBox="0 0 22 22" fill="none" xmlns="http://www.w3.org/2000/svg">
<path d="M20.4255 0.477766C20.6894 0.213904 21.1172 0.213903 21.3811 0.477766C21.6449 0.741628 21.6449 1.16943 21.3811 1.4333L1.80224 21.0121C1.53838 21.276 1.11057 21.276 0.84671 21.0121C0.582847 20.7483 0.582847 20.3205 0.84671 20.0566L20.4255 0.477766Z" fill="#444C40"/>
<path d="M21.0121 20.0567C21.276 20.3206 21.276 20.7484 21.0121 21.0122C20.7483 21.2761 20.3205 21.2761 20.0566 21.0122L0.477766 1.4334C0.213904 1.16954 0.213903 0.74173 0.477766 0.477868C0.741628 0.214005 1.16943 0.214005 1.4333 0.477868L21.0121 20.0567Z" fill="#444C40"/>
</svg>
