<svg width="54" height="34" viewBox="0 0 54 34" fill="none" xmlns="http://www.w3.org/2000/svg">
<rect width="54" height="33.9623" rx="2" fill="#3B4338"/>
<rect y="5.43408" width="54" height="4.75472" fill="white"/>
<circle cx="45.679" cy="28.0189" r="2.54717" fill="white"/>
<circle cx="48.0569" cy="28.0189" r="2.29717" stroke="white" stroke-width="0.5"/>
<circle cx="3.90592" cy="14.0944" r="0.509434" fill="white"/>
<circle cx="5.60416" cy="14.0944" r="0.509434" fill="white"/>
<circle cx="7.3024" cy="14.0944" r="0.509434" fill="white"/>
<circle cx="9.00064" cy="14.0944" r="0.509434" fill="white"/>
<circle cx="13.4157" cy="14.0944" r="0.509434" fill="white"/>
<circle cx="15.1139" cy="14.0944" r="0.509434" fill="white"/>
<circle cx="16.8112" cy="14.0944" r="0.509434" fill="white"/>
<circle cx="18.5094" cy="14.0944" r="0.509434" fill="white"/>
<circle cx="22.9245" cy="14.0944" r="0.509434" fill="white"/>
<circle cx="24.6227" cy="14.0944" r="0.509434" fill="white"/>
<circle cx="26.321" cy="14.0944" r="0.509434" fill="white"/>
<circle cx="28.0192" cy="14.0944" r="0.509434" fill="white"/>
<circle cx="32.4342" cy="14.0944" r="0.509434" fill="white"/>
<circle cx="34.1325" cy="14.0944" r="0.509434" fill="white"/>
<circle cx="35.8307" cy="14.0944" r="0.509434" fill="white"/>
<circle cx="37.529" cy="14.0944" r="0.509434" fill="white"/>
<circle cx="3.90592" cy="29.3774" r="0.509434" fill="white"/>
<circle cx="5.60416" cy="29.3774" r="0.509434" fill="white"/>
<circle cx="8.32096" cy="29.3774" r="0.509434" fill="white"/>
<circle cx="10.0192" cy="29.3774" r="0.509434" fill="white"/>
<path d="M7.47199 28.2526L7.31067 28.1887L6.45312 30.5054L6.61728 30.5661L7.47199 28.2526Z" fill="white"/>
</svg>
