<svg width="54" height="27" viewBox="0 0 54 27" fill="none" xmlns="http://www.w3.org/2000/svg">
<rect x="5.65527" y="5.65527" width="47.3448" height="20.3448" rx="1" stroke="#444C40" stroke-width="2"/>
<rect width="49.3448" height="22.3448" rx="2" fill="#444C40"/>
<path d="M24.2295 16.2223L21.4141 11.3065V10.651H21.7418C22.5363 10.651 23.1421 10.5368 23.5592 10.3084C23.9862 10.08 24.2345 9.66784 24.304 9.07198H21.4141V8.1186H24.2891C24.1898 7.56246 23.9266 7.16025 23.4996 6.91198C23.0825 6.6637 22.4965 6.53956 21.7418 6.53956H21.4141V5.58618H27.5812V6.53956H24.7658C25.2425 6.92687 25.5255 7.45322 25.6149 8.1186H27.5812V9.07198H25.6447C25.5752 9.79694 25.2971 10.363 24.8105 10.7702C24.3338 11.1674 23.6982 11.4207 22.9037 11.5299L25.749 16.2223H24.2295Z" fill="white"/>
</svg>
