<svg width="16" height="16" viewBox="0 0 16 16" fill="none" xmlns="http://www.w3.org/2000/svg">
<path d="M15.9631 4.70608C15.9256 3.85557 15.7881 3.27085 15.5911 2.76419C15.3878 2.22637 15.0751 1.74487 14.6655 1.34459C14.2652 0.938089 13.7805 0.622217 13.2489 0.42214C12.7393 0.225117 12.1577 0.0875794 11.3071 0.0500802C10.4503 0.00940531 10.1783 0 8.00502 0C5.83178 0 5.55976 0.00940531 4.70608 0.0469044C3.85557 0.0844036 3.27085 0.222063 2.76431 0.418964C2.22637 0.622217 1.74487 0.934913 1.34459 1.34459C0.938089 1.74487 0.622339 2.22955 0.42214 2.76113C0.225117 3.27085 0.0875794 3.85239 0.0500802 4.7029C0.00940531 5.55976 0 5.83178 0 8.00502C0 10.1783 0.00940531 10.4503 0.0469044 11.304C0.0844036 12.1545 0.222063 12.7392 0.419086 13.2459C0.622339 13.7837 0.938089 14.2652 1.34459 14.6655C1.74487 15.072 2.22955 15.3878 2.76113 15.5879C3.27085 15.7849 3.85239 15.9225 4.70302 15.96C5.55659 15.9976 5.82873 16.0069 8.00197 16.0069C10.1752 16.0069 10.4472 15.9976 11.3009 15.96C12.1514 15.9225 12.7361 15.7849 13.2427 15.5879C14.3184 15.172 15.1689 14.3215 15.5849 13.2459C15.7818 12.7361 15.9194 12.1545 15.9569 11.304C15.9944 10.4503 16.0038 10.1783 16.0038 8.00502C16.0038 5.83178 16.0006 5.55976 15.9631 4.70608ZM14.5217 11.2414C14.4872 12.0232 14.3559 12.4453 14.2465 12.7267C13.9775 13.4241 13.4241 13.9775 12.7267 14.2465C12.4453 14.3559 12.0201 14.4872 11.2414 14.5216C10.3971 14.5592 10.1439 14.5685 8.0082 14.5685C5.87246 14.5685 5.61607 14.5592 4.77485 14.5216C3.99311 14.4872 3.57097 14.3559 3.28954 14.2465C2.94252 14.1182 2.62665 13.915 2.37026 13.6492C2.10447 13.3896 1.90122 13.0769 1.77296 12.7299C1.66352 12.4485 1.53221 12.0232 1.49789 11.2446C1.46027 10.4003 1.45098 10.147 1.45098 8.01125C1.45098 5.87551 1.46027 5.61913 1.49789 4.77802C1.53221 3.99628 1.66352 3.57414 1.77296 3.29272C1.90122 2.94557 2.10447 2.62982 2.37344 2.37332C2.63288 2.10752 2.94557 1.90427 3.29272 1.77614C3.57414 1.6667 3.99946 1.53539 4.77802 1.50094C5.6223 1.46344 5.87564 1.45404 8.01125 1.45404C10.1502 1.45404 10.4034 1.46344 11.2446 1.50094C12.0263 1.53539 12.4485 1.6667 12.7299 1.77614C13.0769 1.90427 13.3928 2.10752 13.6492 2.37332C13.915 2.63288 14.1182 2.94557 14.2465 3.29272C14.3559 3.57414 14.4872 3.99934 14.5217 4.77802C14.5592 5.6223 14.5686 5.87551 14.5686 8.01125C14.5686 10.147 14.5592 10.3971 14.5217 11.2414Z" fill="#444C40"/>
<path d="M8.00502 3.89307C5.73492 3.89307 3.89307 5.7348 3.89307 8.00502C3.89307 10.2752 5.73492 12.117 8.00502 12.117C10.2752 12.117 12.117 10.2752 12.117 8.00502C12.117 5.7348 10.2752 3.89307 8.00502 3.89307ZM8.00502 10.6723C6.5323 10.6723 5.3377 9.47787 5.3377 8.00502C5.3377 6.53217 6.5323 5.3377 8.00502 5.3377C9.47787 5.3377 10.6723 6.53217 10.6723 8.00502C10.6723 9.47787 9.47787 10.6723 8.00502 10.6723Z" fill="#444C40"/>
<path d="M13.2399 3.73046C13.2399 4.26058 12.81 4.69041 12.2798 4.69041C11.7497 4.69041 11.3198 4.26058 11.3198 3.73046C11.3198 3.20022 11.7497 2.77051 12.2798 2.77051C12.81 2.77051 13.2399 3.20022 13.2399 3.73046Z" fill="#444C40"/>
</svg>
