<svg width="88" height="93" viewBox="0 0 88 93" fill="none" xmlns="http://www.w3.org/2000/svg">
<path d="M83.6522 53L80 46.9916V46.1905H80.4251C81.4557 46.1905 82.2415 46.0509 82.7826 45.7717C83.3366 45.4925 83.6586 44.9888 83.7488 44.2605H80V43.0952H83.7295C83.6006 42.4155 83.2593 41.9239 82.7053 41.6204C82.1643 41.317 81.4042 41.1653 80.4251 41.1653H80V40H88V41.1653H84.3478C84.9662 41.6387 85.3333 42.282 85.4493 43.0952H88V44.2605H85.4879C85.3977 45.1466 85.037 45.8385 84.4058 46.3361C83.7874 46.8217 82.963 47.1312 81.9324 47.2647L85.6232 53H83.6522Z" fill="white"/>
<path d="M27.6608 35.4264C27.8124 33.8912 29.1036 32.7212 30.6463 32.7212H54.306C55.8487 32.7212 57.1399 33.8912 57.2915 35.4264L60.2479 65.3624C60.4222 67.1272 59.0358 68.6573 57.2624 68.6573H27.6899C25.9165 68.6573 24.5301 67.1272 24.7044 65.3624L27.6608 35.4264Z" stroke="white" stroke-width="2"/>
<path d="M51.2036 37.7723V31.9539C51.2036 27.0695 47.244 23.1099 42.3596 23.1099V23.1099C37.4752 23.1099 33.5156 27.0694 33.5156 31.9539V37.7723" stroke="white" stroke-width="2" stroke-linecap="round"/>
<path d="M83.952 27.7647C76.8112 11.9814 60.926 1 42.476 1C24.0259 1 8.14077 11.9814 1 27.7647M83.952 65.2353C76.8112 81.0186 60.926 92 42.476 92C24.026 92 8.14077 81.0186 1 65.2353" stroke="white" stroke-width="2" stroke-linecap="round"/>
<path d="M34.6797 54.0361L37.7053 56.7986L50.4864 44.5217" stroke="white" stroke-width="2" stroke-linecap="round"/>
</svg>
