<svg width="77" height="93" viewBox="0 0 77 93" fill="none" xmlns="http://www.w3.org/2000/svg">
<path d="M60.3478 91.0109H13C6.37259 91.0109 1 85.6383 1 79.0109V13C1 6.37257 6.37258 1 13 1H58.7501C65.3775 1 70.7501 6.37258 70.7501 13V71.2283" stroke="white" stroke-width="2" stroke-linecap="round"/>
<rect x="69.7446" y="78.1521" width="1.97826" height="10.8804" rx="0.98913" fill="white"/>
<rect x="76.1738" y="82.6033" width="1.97826" height="10.8804" rx="0.98913" transform="rotate(90 76.1738 82.6033)" fill="white"/>
<rect x="60.3479" y="11.8804" width="1.97826" height="50.4457" rx="0.989132" transform="rotate(90 60.3479 11.8804)" fill="white"/>
<rect x="60.3479" y="24.739" width="1.97826" height="50.4457" rx="0.989132" transform="rotate(90 60.3479 24.739)" fill="white"/>
<rect x="36.6086" y="37.5979" width="1.97826" height="26.7065" rx="0.989131" transform="rotate(90 36.6086 37.5979)" fill="white"/>
</svg>
