<svg width="162" height="22" viewBox="0 0 162 22" fill="none" xmlns="http://www.w3.org/2000/svg">
<path d="M0 0.102539V1.875H6.92871V21.4307H9.24316V1.875H16.2158V0.102539H0Z" fill="black"/>
<path d="M25.4004 0.102539L17.3145 21.4307H19.585L22.1777 14.502H30.8789L33.4717 21.4307H35.7275L27.5684 0.102539H25.4004ZM22.749 12.8467L26.499 2.51953L30.3076 12.8467H22.749Z" fill="black"/>
<path d="M53.7744 0.102539V12.5098L53.9209 18.5303L41.9971 0.102539H39.6973V21.4307H41.7627V9.59473L41.5576 3.13477L53.4521 21.4307H55.8252V0.102539H53.7744Z" fill="black"/>
<path d="M76.04 0.102539V12.5098L76.1865 18.5303L64.2627 0.102539H61.9629V21.4307H64.0283V9.59473L63.8232 3.13477L75.7178 21.4307H78.0908V0.102539H76.04Z" fill="black"/>
<path d="M88.7988 0.102539V1.875H95.7275V21.4307H98.042V1.875H105.015V0.102539H88.7988Z" fill="black"/>
<path d="M123.12 5.61035C123.12 4.25293 122.866 3.17871 122.358 2.3877C121.86 1.58691 121.001 0.991211 119.78 0.600586C118.56 0.200195 116.885 0 114.756 0C113.037 0 110.879 0.126953 108.281 0.380859V21.4307H110.596V11.3818L116.338 11.3672L121.274 21.4307H123.691V21.1523L118.652 11.1328C120.137 10.7812 121.25 10.1562 121.992 9.25781C122.744 8.35938 123.12 7.14355 123.12 5.61035ZM110.596 1.875C112.295 1.73828 113.691 1.66992 114.785 1.66992C115.82 1.66992 116.704 1.72852 117.437 1.8457C118.179 1.95312 118.779 2.10938 119.238 2.31445C119.697 2.50977 120.059 2.77832 120.322 3.12012C120.586 3.46191 120.762 3.82812 120.85 4.21875C120.947 4.59961 120.996 5.06836 120.996 5.625C120.996 6.39648 120.913 7.02637 120.747 7.51465C120.581 8.00293 120.278 8.42285 119.839 8.77441C119.399 9.12598 118.789 9.375 118.008 9.52148C117.236 9.66797 116.24 9.74121 115.02 9.74121H110.596V1.875Z" fill="black"/>
<path d="M127.529 0.102539V1.55273H130.4V19.9805H127.529V21.4307H135.557V19.9805H132.715V1.55273H135.557V0.102539H127.529Z" fill="black"/>
<path d="M141.138 21.4307H143.306V14.1943L143.438 2.91504L150.527 19.0869H152.52L159.624 3.07617L159.756 14.165V21.4307H161.909V14.1943L161.572 0.102539H158.774L151.538 16.4648L144.36 0.102539H141.46L141.138 14.1943V21.4307Z" fill="black"/>
</svg>
