<svg width="21" height="16" viewBox="0 0 21 16" fill="none" xmlns="http://www.w3.org/2000/svg">
<path d="M20.5673 2.50362C20.3253 1.52463 19.616 0.752899 18.7165 0.489286C17.0732 0 10.4998 0 10.4998 0C10.4998 0 3.92661 0 2.28329 0.470736C1.40107 0.734069 0.674452 1.52477 0.432459 2.50362C0 4.29172 0 8 0 8C0 8 0 11.727 0.432459 13.4964C0.674708 14.4752 1.38377 15.247 2.28342 15.5106C3.94392 16 10.5 16 10.5 16C10.5 16 17.0732 16 18.7165 15.5293C19.6161 15.2658 20.3253 14.4941 20.5676 13.5152C20.9999 11.727 20.9999 8.01883 20.9999 8.01883C20.9999 8.01883 21.0172 4.29172 20.5673 2.50362ZM8.40694 11.4258V4.57416L13.873 8L8.40694 11.4258Z" fill="#444C40"/>
</svg>
